<svg xmlns="http://www.w3.org/2000/svg" viewBox="0 0 165.681 39.454"><title>ZenFone</title><path d="M33.844,12.669c-7.068,0-12,5.7-12,13.857,0,7.975,4.823,12.927,12.6,12.927a21.3,21.3,0,0,0,8.337-1.474l-.637-2.69A17.753,17.753,0,0,1,35.1,36.51c-5.818,0-9.348-3.564-9.447-9.542l-.007-.389h18.6a15.68,15.68,0,0,0,.127-1.857c0-5.562-2.763-12.053-10.531-12.053M40.5,23.535l-.006.373H25.664l.048-.423c.466-4.059,3.04-8.144,7.749-8.144A6.525,6.525,0,0,1,38.312,17.2c2.1,2.137,2.2,5.387,2.186,6.337"/><polygon points="1.446 6.667 17.352 6.667 0 37.156 0 39.453 21.495 39.453 21.495 36.238 4.544 36.233 21.783 5.854 21.783 3.445 1.446 3.445 1.446 6.667"/><path d="M86.715,4.558,87.1.5A13.093,13.093,0,0,0,83.355,0a9.705,9.705,0,0,0-6.637,2.443c-1.982,1.9-3.083,5.013-3.083,8.769V39.423h5.638V17.094a.2.2,0,0,1,.208-.2h5.668V12.967H79.421a.2.2,0,0,1-.2-.208V11c0-4.347,1.818-6.741,5.127-6.741a9.093,9.093,0,0,1,2.366.3"/><path d="M98.946,12.364c-8.117,0-13.372,5.374-13.372,13.7,0,7.966,5.2,13.322,12.936,13.322,6.6,0,13.265-4.257,13.265-13.768,0-7.93-5.154-13.257-12.829-13.257m-.214,23.265c-4.366,0-7.3-3.908-7.3-9.725,0-4.491,1.924-9.732,7.351-9.732,4.924,0,7.124,4.834,7.124,9.614,0,5.8-2.95,9.843-7.178,9.843"/><path d="M147.588,27.193h17.963a18.306,18.306,0,0,0,.13-2.292c0-6.063-2.9-12.536-11.042-12.536-8.661,0-12.6,7.216-12.6,13.925,0,8.079,5.107,13.1,13.319,13.1a24.871,24.871,0,0,0,8.742-1.5l-.757-3.56a21.356,21.356,0,0,1-7.043,1.02c-4.179,0-8.705-1.977-8.9-7.547l-.016-.4a.242.242,0,0,1,.056-.149.234.234,0,0,1,.149-.063m-.235-3.81.046-.424c.271-2.646,2.008-7.122,6.848-7.122a5.72,5.72,0,0,1,4.255,1.656,7.963,7.963,0,0,1,1.926,5.539l-.007.373a.2.2,0,0,1-.2.2H147.563a.181.181,0,0,1-.151-.07.222.222,0,0,1-.059-.153"/><path d="M138.565,39.423V23.349c0-10.2-6.892-10.984-9-10.984a9.145,9.145,0,0,0-8.035,4.276.27.27,0,0,1-.019.059,19.558,19.558,0,0,0-.843,1.818.222.222,0,0,1-.226.132.2.2,0,0,1-.172-.187l-.34-5.5h-4.812c.128,1.995.186,4.309.186,7.448V39.423h5.689V23.517a7.114,7.114,0,0,1,.316-2.414,6.305,6.305,0,0,1,5.873-4.379c3.7,0,5.74,2.628,5.74,7.405V39.423Z"/><path d="M60.338,13.217a11.169,11.169,0,0,0-2.029.189l.011,0a8.941,8.941,0,0,0-6.767,4.78h-.021c-.117.255-.244.546-.34.813l-.049-.813h-.007l-.275-4.368H47.384c.128,1.924.191,3.979.191,6.768V39.454H51.6V23.963a7.009,7.009,0,0,1,.354-2.362,7.154,7.154,0,0,1,6.794-5.168c4.191,0,6.494,2.9,6.494,8.186V39.454h4.036V24.07c0-10.331-7.453-10.853-8.944-10.853"/></svg>