<?xml version="1.0" encoding="UTF-8"?>
<!-- Converted to standalone icon: root uses currentColor so page CSS can color/size it. Child fill attributes removed. -->
<svg xmlns="http://www.w3.org/2000/svg" viewBox="0 0 512 512" fill="currentColor" aria-hidden="true" preserveAspectRatio="xMidYMid meet">
<path d="M0 0 C1.22672928 -0.00511093 2.45345856 -0.01022186 3.71736145 -0.01548767 C7.0708239 -0.02698392 10.4240387 -0.02946075 13.77750349 -0.02692437 C16.58299523 -0.02585182 19.38846437 -0.03074536 22.19395125 -0.03552979 C28.81632987 -0.04661155 35.43865176 -0.0470701 42.06103516 -0.04101562 C48.8786646 -0.03497819 55.69608755 -0.04728393 62.51368177 -0.06858569 C68.37970997 -0.08623611 74.24567265 -0.09219759 80.1117264 -0.08894795 C83.60963028 -0.0871402 87.10738689 -0.08972009 90.60526657 -0.10366249 C94.50906132 -0.11864155 98.41259576 -0.10924064 102.31640625 -0.09765625 C103.46576157 -0.10529999 104.61511688 -0.11294373 105.79930115 -0.12081909 C115.85771745 -0.05493871 122.36980393 2.11512409 129.80322266 9.0871582 C136.1238438 16.05477207 136.93806904 23.58484811 136.92803955 32.7051239 C136.93249623 33.97501694 136.93249623 33.97501694 136.93704295 35.27056438 C136.94571152 38.10616754 136.94723665 40.94172839 136.94873047 43.77734375 C136.95335997 45.81109202 136.95838481 47.84483942 136.96377563 49.87858582 C136.97688948 55.40357803 136.98334269 60.9285581 136.98778629 66.45356345 C136.99071884 69.90688283 136.99482401 73.3601989 136.99929047 76.81351662 C137.01296313 87.62251987 137.02263075 98.43151555 137.02649236 109.24052685 C137.03097176 121.70966627 137.04851522 134.17869599 137.07749295 146.64780205 C137.09912455 156.29129373 137.10919744 165.93475458 137.11053348 175.57827026 C137.1115805 181.33536708 137.1174665 187.09236075 137.13535309 192.84943199 C137.15185911 198.26752541 137.15397692 203.68543842 137.14521408 209.10354805 C137.14444505 211.08763996 137.1487687 213.07174168 137.15867233 215.05580902 C137.27443496 239.70079176 137.27443496 239.70079176 127.19775391 250.13793945 C121.06952805 255.57090467 114.65524836 257.40832483 106.53833008 257.38818359 C105.51764938 257.38810806 104.49696869 257.38803253 103.44535828 257.38795471 C101.8107238 257.38021278 101.8107238 257.38021278 100.14306641 257.37231445 C98.45568108 257.37019203 98.45568108 257.37019203 96.73420715 257.36802673 C93.14781006 257.36243751 89.56147582 257.34988693 85.97509766 257.3371582 C83.54085377 257.33214181 81.1066089 257.32757915 78.67236328 257.32348633 C72.71075336 257.3124716 66.74918 257.29574414 60.78759766 257.2746582 C60.79203888 257.82874359 60.7964801 258.38282898 60.80105591 258.95370483 C60.84557557 264.76199748 60.875582 270.57024102 60.89746094 276.37866211 C60.90746933 278.54144258 60.92108016 280.70420969 60.93847656 282.86694336 C60.9629531 285.98986119 60.97413269 289.11259887 60.98291016 292.2355957 C60.99323273 293.1901767 61.0035553 294.14475769 61.01419067 295.12826538 C61.01627248 307.80967897 58.42569847 318.0195069 49.69384766 327.4543457 C40.67437213 336.06720553 29.3209859 337.73383297 17.2640686 337.66233826 C15.60376509 337.67041656 15.60376509 337.67041656 13.9099201 337.67865807 C10.22921912 337.69287832 6.54888081 337.68584841 2.86816406 337.67871094 C0.21770606 337.68441761 -2.43272658 337.69128323 -5.08317566 337.69950867 C-11.51835597 337.71664584 -17.95343843 337.71754727 -24.38863562 337.71229576 C-29.62282548 337.70824323 -34.85698658 337.70971043 -40.09117508 337.71504402 C-40.83805419 337.71579244 -41.5849333 337.71654087 -42.35444511 337.71731197 C-43.87206073 337.71884355 -45.38967635 337.7203819 -46.90729196 337.72192694 C-61.11773412 337.73563365 -75.32812113 337.73022723 -89.53856201 337.71874172 C-102.5171536 337.70881179 -115.49560257 337.72174909 -128.47417216 337.74567591 C-141.8256945 337.77010338 -155.17715052 337.77966581 -168.52869475 337.77302319 C-176.01451683 337.76953899 -183.5002293 337.77170997 -190.98603439 337.78927422 C-197.3586007 337.80404196 -203.7309802 337.80457233 -210.10354303 337.7872033 C-213.3498422 337.7787281 -216.59574209 337.77865123 -219.84203529 337.79185486 C-251.04110767 337.90902226 -251.04110767 337.90902226 -262.27880859 328.2590332 C-269.72991407 320.61224213 -273.68547835 311.70872978 -273.60681152 301.02838135 C-273.61290263 300.23780358 -273.61899373 299.44722581 -273.62526941 298.63269114 C-273.6418135 296.00440841 -273.63713598 293.37661473 -273.63232422 290.74829102 C-273.63966965 288.85527039 -273.64825726 286.96225424 -273.6579895 285.06924438 C-273.68016693 279.94093694 -273.68313798 274.81279037 -273.68124199 269.68444157 C-273.68112209 265.39548028 -273.6896945 261.10655282 -273.6980195 256.81760097 C-273.71724092 246.6932376 -273.72014236 236.56895668 -273.71337891 226.44458008 C-273.70674256 216.01989063 -273.72958915 205.5955554 -273.76669264 195.17093778 C-273.79744259 186.20418811 -273.80874381 177.23755206 -273.80485582 168.27075076 C-273.8027934 162.92269386 -273.80818896 157.57491253 -273.83274841 152.22690582 C-273.85509983 147.19357494 -273.85306805 142.16081746 -273.83282089 137.12748337 C-273.82942541 135.28774693 -273.83443642 133.44797127 -273.84880447 131.60828781 C-273.93962584 119.10995987 -273.09739253 107.42335895 -264.01708984 97.80200195 C-254.54940862 89.7893107 -244.83118521 87.10930781 -232.63235474 87.15440369 C-231.78193285 87.15354926 -230.93151096 87.15269484 -230.05531871 87.15181452 C-227.21328982 87.15017089 -224.3713203 87.15566279 -221.52929688 87.16113281 C-219.48902894 87.16141495 -217.44876091 87.16125643 -215.40849304 87.16069031 C-209.87389199 87.16040338 -204.3393126 87.16628334 -198.80471659 87.17326427 C-193.01913468 87.17951508 -187.23355229 87.18010297 -181.44796753 87.18128967 C-170.49400387 87.18439788 -159.54005019 87.19260442 -148.58609092 87.20263916 C-136.11460636 87.21381611 -123.64312133 87.21931474 -111.17163301 87.2243346 C-85.51855059 87.23478744 -59.86547702 87.25237703 -34.21240234 87.2746582 C-34.2223951 86.14285629 -34.2223951 86.14285629 -34.23258972 84.9881897 C-34.29297438 77.83927822 -34.33851461 70.69049232 -34.36783886 63.54139137 C-34.38342213 59.86691943 -34.40452399 56.19266015 -34.4387207 52.51831055 C-34.471579 48.96509112 -34.48931038 45.41207483 -34.49703407 41.85871506 C-34.50518551 39.8592432 -34.52856159 37.8598518 -34.55229187 35.86050415 C-34.55432715 24.71794104 -33.11094666 15.56074791 -25.21240234 7.2746582 C-17.52370375 0.46912094 -9.95354311 -0.0213794 0 0 Z " transform="translate(333.21240234375,67.725341796875)"/>
<path d="M0 0 C1.86222919 -0.00874829 1.86222919 -0.00874829 3.76207918 -0.01767331 C5.14210461 -0.01404001 6.52212954 -0.01021563 7.90215397 -0.00622082 C9.36634884 -0.00924044 10.83054214 -0.01312897 12.29473263 -0.01781338 C16.32362794 -0.02812649 20.35243459 -0.02590317 24.38133729 -0.02163279 C28.72428965 -0.01917157 33.06722034 -0.02817219 37.41016483 -0.03567028 C45.92041191 -0.04843602 54.43062746 -0.05020865 62.9408825 -0.04787002 C69.85627107 -0.04608884 76.77165005 -0.04783219 83.68703747 -0.05209446 C85.16193897 -0.05298724 85.16193897 -0.05298724 86.66663646 -0.05389806 C88.66397667 -0.05510978 90.66131687 -0.05632391 92.65865708 -0.05754044 C111.40025008 -0.06842314 130.14182509 -0.06624999 148.8834191 -0.06015559 C166.03873759 -0.05498542 183.19399932 -0.06624322 200.34930658 -0.08525381 C217.95392593 -0.10461314 235.55851839 -0.11289159 253.16314846 -0.10913056 C263.05100692 -0.10721566 272.93881704 -0.10973413 282.82666683 -0.1238451 C291.24394706 -0.1357356 299.66114921 -0.13719005 308.07843047 -0.12505493 C312.37471878 -0.11914989 316.67086412 -0.11811149 320.96714306 -0.13005733 C324.89825211 -0.140861 328.82909787 -0.13787907 332.76019431 -0.12379565 C334.18411107 -0.12113343 335.60804809 -0.12356279 337.03194504 -0.13153151 C338.96439954 -0.14159769 340.89692793 -0.13144842 342.82937622 -0.12025452 C343.90371507 -0.12030953 344.97805391 -0.12036455 346.08494848 -0.12042123 C349.43269825 0.31345647 351.28002882 1.25112132 353.97760868 3.25447559 C356.47792523 7.00495041 356.51364422 8.81303825 355.97760868 13.25447559 C353.50762591 16.35747607 351.98734738 18.03801881 348.05930036 18.88007075 C346.97281047 18.88034043 345.88632057 18.88061012 344.76690674 18.88088799 C343.50887928 18.89331002 342.25085182 18.90573206 340.95470232 18.91853052 C339.56120581 18.90702967 338.16771314 18.89505746 336.77422428 18.88266468 C335.29194771 18.88770948 333.80967722 18.89493781 332.32742077 18.90416282 C328.25307042 18.92312164 324.17931887 18.9108313 320.10498345 18.89343989 C315.71160159 18.88008824 311.31830863 18.89549498 306.92493534 18.90726185 C298.31816854 18.92565885 289.71162848 18.91711261 281.1048687 18.89917362 C274.11177486 18.88515946 267.11874264 18.88125227 260.1256361 18.8846159 C259.13111376 18.88509334 258.13659141 18.88557078 257.11193203 18.88606269 C255.09171961 18.887089 253.0715072 18.88814436 251.05129481 18.88922846 C233.18041455 18.89779957 215.30964391 18.88110667 197.43879032 18.85139942 C180.08783203 18.8225567 162.73703164 18.81548 145.38605595 18.83089161 C126.50182691 18.84764207 107.61767287 18.85170012 88.73344189 18.83418125 C86.7208831 18.83233681 84.7083243 18.83050209 82.6957655 18.82867718 C81.7054877 18.82776509 80.7152099 18.826853 79.69492368 18.82591327 C72.70761592 18.82030101 65.72034469 18.82362142 58.7330389 18.83022213 C50.22166131 18.83794322 41.71043932 18.83124687 33.19909316 18.80604709 C28.85428842 18.79352402 24.50972629 18.78743938 20.16491222 18.79858875 C16.19062947 18.80859496 12.21683158 18.8002496 8.24260808 18.77700757 C6.80192346 18.77182813 5.36119575 18.77344622 3.92052966 18.78240222 C1.96786118 18.79353497 0.01509409 18.77781656 -1.93753052 18.76063347 C-3.02385806 18.75944199 -4.11018561 18.7582505 -5.22943217 18.75702292 C-8.7225892 18.12848644 -9.88187975 17.03896696 -12.02239132 14.25447559 C-13.08674236 10.35185511 -13.41978717 8.1956763 -11.83489132 4.44197559 C-8.41631979 0.31611341 -5.21110002 0.00420495 0 0 Z " transform="translate(359.173828125,278.482421875)"/>
</svg>
