<?xml version="1.0" encoding="UTF-8"?>
<svg xmlns="http://www.w3.org/2000/svg" viewBox="0 0 512 512" fill="currentColor" aria-hidden="true">
<path d="M0 0 C5.15359221 4.65080272 7.22135587 7.76460108 7.875 14.5625 C7.20852355 22.56021738 1.7231034 29.33376678 -2.6875 35.8125 C-3.51894531 37.04613281 -3.51894531 37.04613281 -4.3671875 38.3046875 C-5.71974205 40.31019942 -7.076548 42.31268154 -8.4375 44.3125 C-7.69371094 44.2403125 -6.94992188 44.168125 -6.18359375 44.09375 C46.73866835 39.59504531 98.0331461 52.8449309 138.9921875 87.26953125 C140.18316423 88.28282949 141.37334677 89.29706241 142.5625 90.3125 C143.47257812 91.07949219 144.38265625 91.84648437 145.3203125 92.63671875 C150.20284217 96.84893503 154.4366364 101.36664259 158.5625 106.3125 C159.70332031 107.62154297 159.70332031 107.62154297 160.8671875 108.95703125 C194.24102954 147.78921194 207.76141376 196.97287013 204.34423828 247.54248047 C199.86252747 295.18724094 175.84031632 340.48351851 139.15234375 371.22265625 C117.36163775 388.94148627 93.09320549 401.76830372 65.9375 409.125 C64.93904053 409.39908691 64.93904053 409.39908691 63.92041016 409.67871094 C49.4713125 413.34090903 34.95692428 414.81607601 20.08300781 414.70361328 C17.56260118 414.68750065 15.043797 414.70359963 12.5234375 414.72265625 C-2.26678107 414.74211742 -16.84846681 412.96794259 -31.125 409 C-31.90278809 408.78835205 -32.68057617 408.5767041 -33.48193359 408.35864258 C-64.30452387 399.72844288 -90.97289589 383.73686705 -114.00195312 361.68066406 C-115.25293618 360.48840062 -116.52332325 359.31656278 -117.796875 358.1484375 C-128.90773043 347.64584058 -137.91325768 334.55645543 -145.4375 321.3125 C-146.09105469 320.19101562 -146.74460937 319.06953125 -147.41796875 317.9140625 C-170.76913501 276.82640323 -175.95773533 225.68217095 -163.54052734 180.32421875 C-159.69543277 166.99529681 -154.79742502 154.5292191 -148.4375 142.1875 C-147.95144287 141.2397168 -147.46538574 140.29193359 -146.96459961 139.31542969 C-137.94641753 122.31632934 -137.94641753 122.31632934 -129.60546875 118.84765625 C-124.37187884 117.55576108 -119.75849844 117.93150593 -115.09375 120.70703125 C-110.59392036 124.31830757 -108.16051298 127.42510856 -107.4375 133.3125 C-107.72589825 140.24145282 -109.91285513 144.50807882 -113.5625 150.3125 C-134.16197542 184.59612669 -141.56940311 225.64783689 -131.81933594 264.79443359 C-121.6850899 303.48011077 -97.70769344 338.27625754 -62.90380859 358.80712891 C-25.44717245 380.11255446 16.83944386 386.96917713 58.75 375.7109375 C77.59762397 370.34397981 96.36601299 361.82037777 111.5625 349.3125 C112.0771582 348.89500488 112.59181641 348.47750977 113.12207031 348.04736328 C144.9670067 322.14420325 166.01369495 286.05153732 170.36181641 244.87890625 C173.59336093 203.55287699 162.30682751 163.57189263 135.37890625 131.73046875 C133.15266078 129.21056523 130.87411339 126.75423732 128.5625 124.3125 C127.74265625 123.42820312 126.9228125 122.54390625 126.078125 121.6328125 C99.35169074 93.72029388 60.05170414 78.13655226 21.71875 77.1015625 C14.53895743 77.01254673 7.64599538 77.04559527 0.5625 78.3125 C1.17770508 78.71041748 1.79291016 79.10833496 2.42675781 79.51831055 C5.22771057 81.33692236 8.02009888 83.16828734 10.8125 85 C11.78058594 85.62583984 12.74867188 86.25167969 13.74609375 86.89648438 C15.14794922 87.81977539 15.14794922 87.81977539 16.578125 88.76171875 C17.43696289 89.32205811 18.29580078 89.88239746 19.18066406 90.4597168 C23.67113544 93.95276592 26.36073028 97.74065856 27.5625 103.3125 C27.5625 109.64581411 25.87350088 113.86143846 21.5 118.5 C17.43209889 121.00998154 13.36270874 122.30578642 8.5625 122.3125 C1.99109763 120.39469533 -3.22720165 117.11168617 -8.875 113.3125 C-10.65478224 112.13516617 -12.43473281 110.95808677 -14.21484375 109.78125 C-15.09640137 109.19472656 -15.97795898 108.60820312 -16.88623047 108.00390625 C-19.87419346 106.02298686 -22.88032429 104.07193926 -25.89379883 102.13012695 C-27.25637285 101.25164027 -28.61689429 100.36996175 -29.9753418 99.48510742 C-33.87589177 96.94618727 -37.80383615 94.46197266 -41.765625 92.01953125 C-43.11817383 91.17261719 -43.11817383 91.17261719 -44.49804688 90.30859375 C-46.24063971 89.21773317 -47.99154727 88.13999967 -49.75195312 87.078125 C-55.10622166 83.69875616 -58.95200871 80.2510041 -61.4375 74.3125 C-63.27778597 63.51697257 -56.18744864 55.13977956 -50.5 46.5625 C-49.15603174 44.51967482 -47.81228593 42.47670328 -46.46875 40.43359375 C-45.79457031 39.41120605 -45.12039062 38.38881836 -44.42578125 37.33544922 C-41.98348938 33.62222993 -39.5628094 29.89534838 -37.14672852 26.16503906 C-35.53945826 23.68586341 -33.92447424 21.21185045 -32.30859375 18.73828125 C-30.53919378 16.02527868 -28.79937409 13.29887441 -27.09765625 10.54296875 C-20.67055751 0.34102891 -12.26299609 -6.02001626 0 0 Z " transform="translate(238.4375,49.6875)"/>
</svg>
